<svg xmlns="http://www.w3.org/2000/svg" version="1.1" xmlns:xlink="http://www.w3.org/1999/xlink" xmlns:svgjs="http://svgjs.dev/svgjs" width="1000" height="1000" viewBox="0 0 1000 1000"><rect width="1000" height="1000" fill="#60777f"></rect><g transform="matrix(0.7,0,0,0.7,149.57575757575756,421.23235308089966)"><svg viewBox="0 0 396 89" data-background-color="#60777f" preserveAspectRatio="xMidYMid meet" height="224" width="1000" xmlns="http://www.w3.org/2000/svg" xmlns:xlink="http://www.w3.org/1999/xlink"><defs></defs><g id="tight-bounds" transform="matrix(1,0,0,1,0.2400000000000091,0.20867714158123363)"><svg viewBox="0 0 395.52 88.58264571683752" height="88.58264571683752" width="395.52"><g><svg viewBox="0 0 397.4975999999999 89.0255589454217" height="88.58264571683752" width="395.52"><g><rect width="397.4975999999999" height="2.726735288712055" x="0" y="48.924533587263085" fill="#ffffff" opacity="1" stroke-width="0" stroke="transparent" fill-opacity="1" class="rect-o-0" data-fill-palette-color="secondary" rx="1%" id="o-0" data-palette-color="#ffffff"></rect></g><g transform="matrix(1,0,0,1,0.9887999999999693,58.789319369985755)"><svg viewBox="0 0 395.52 30.23623957543594" height="30.23623957543594" width="395.52"><g><svg viewBox="0 0 395.52 30.23623957543594" height="30.23623957543594" width="395.52"><g><svg viewBox="0 0 395.52 30.23623957543594" height="30.23623957543594" width="395.52"><g transform="matrix(1,0,0,1,0,0)"><svg width="395.52" viewBox="0.5900000333786011 -29.100000381469727 386.3900146484375 29.540000915527344" height="30.23623957543594" data-palette-color="#ffffff"><path d="M22.56-26.32L23.63-22.56 14.7 0.15 12.84 0.15 3.03-26.46 0.59-27.1 0.68-28.66 8.84-28.66 8.94-27.1 6.49-26.51 14.6-4.05 14.31-4.05 22.56-26.32ZM32.08 0.15L30.22 0.15 20.65-26.46 18.21-27.1 18.31-28.66 26.86-28.66 26.95-27.1 24.07-26.51 31.98-4.05 31.54-4.05 39.5-26.46 36.04-27.1 36.13-28.66 44.68-28.66 44.78-27.1 42.33-26.46 32.08 0.15ZM74.75 0L65.52 0 65.43-1.56 68.41-2.2Q68.5-2.39 68.55-3.05 68.6-3.71 68.63-5.2 68.65-6.69 68.65-9.23L68.65-9.23 68.65-19.38Q68.65-22.02 68.63-23.49 68.6-24.95 68.55-25.63 68.5-26.32 68.41-26.46L68.41-26.46 65.43-27.1 65.52-28.66 74.75-28.66 74.85-27.1 71.87-26.46Q71.77-26.32 71.73-25.68 71.68-25.05 71.65-23.58 71.63-22.12 71.63-19.38L71.63-19.38 71.63-9.23Q71.63-6.59 71.65-5.13 71.68-3.66 71.73-3.03 71.77-2.39 71.87-2.2L71.87-2.2 74.85-1.56 74.75 0ZM56.98 0L47.85 0 47.75-1.56 50.73-2.2Q50.78-2.44 50.8-3.25 50.83-4.05 50.85-5.52 50.88-6.98 50.88-9.23L50.88-9.23 50.88-19.38Q50.88-21.68 50.85-23.17 50.83-24.66 50.8-25.46 50.78-26.27 50.73-26.46L50.73-26.46 47.75-27.1 47.85-28.66 56.98-28.66 57.08-27.1 54.1-26.46Q54.05-26.32 53.98-25.63 53.9-24.95 53.88-23.49 53.85-22.02 53.85-19.38L53.85-19.38 53.85-9.23Q53.85-6.69 53.88-5.2 53.9-3.71 53.98-3.05 54.05-2.39 54.1-2.2L54.1-2.2 57.08-1.56 56.98 0ZM53.46-13.53L53.46-13.53 53.46-16.02Q54.29-15.97 56.37-15.92 58.44-15.87 61.33-15.87L61.33-15.87Q64.16-15.87 66.18-15.92 68.21-15.97 68.99-16.02L68.99-16.02 68.99-13.53Q67.82-13.67 66.01-13.7 64.21-13.72 61.33-13.72L61.33-13.72Q58.35-13.72 56.47-13.7 54.59-13.67 53.46-13.53ZM102.19-6.54L100.34 0.24Q98.82 0.05 98.16 0.02 97.5 0 96.82 0L96.82 0 80.07 0 79.98-1.56 82.91-2.2Q82.95-2.44 82.98-3.25 83-4.05 83.03-5.54 83.05-7.03 83.05-9.23L83.05-9.23 83.05-19.38Q83.05-21.63 83.03-23.14 83-24.66 82.98-25.46 82.95-26.27 82.91-26.46L82.91-26.46 79.98-27.1 80.07-28.66 96.09-28.66Q96.63-28.66 97.07-28.66 97.5-28.66 98.12-28.71 98.73-28.76 99.75-28.86L99.75-28.86 100.58-22.75 98.68-22.46 97.11-26.46Q96.87-26.51 96.41-26.54 95.94-26.56 95.41-26.56L95.41-26.56 88.96-26.56Q88.03-26.56 87.4-26.54 86.76-26.51 86.08-26.42L86.08-26.42Q86.08-26.27 86.05-25.34 86.03-24.41 86.01-23.24 85.98-22.07 85.98-21.14L85.98-21.14 85.98-6.54Q85.98-5.86 86.01-4.96 86.03-4.05 86.05-3.32 86.08-2.59 86.08-2.34L86.08-2.34Q86.66-2.29 87.3-2.25 87.93-2.2 88.62-2.2L88.62-2.2 94.38-2.2Q95.36-2.2 96.06-2.22 96.77-2.25 97.21-2.29 97.65-2.34 97.85-2.39L97.85-2.39 100.34-6.93 102.19-6.54ZM97.07-10.11L95.31-10.11 94.67-13.48Q94.43-13.57 93.92-13.62 93.4-13.67 92.67-13.67L92.67-13.67 88.42-13.67Q87.89-13.67 87.13-13.65 86.37-13.62 85.4-13.57L85.4-13.57 85.4-15.87Q86.37-15.82 87.13-15.82 87.89-15.82 88.42-15.82L88.42-15.82 92.67-15.82Q93.4-15.82 93.92-15.84 94.43-15.87 94.67-15.97L94.67-15.97 95.31-19.43 97.07-19.43 97.07-10.11ZM128.7-5.91L128.36-5.91 128.36-18.6Q128.36-21.73 128.31-23.36 128.26-25 128.22-25.68 128.17-26.37 128.12-26.46L128.12-26.46 124.85-27.1 124.94-28.66 133.73-28.66 133.83-27.1 130.9-26.46Q130.9-26.37 130.83-25.68 130.75-25 130.71-23.34 130.66-21.68 130.66-18.6L130.66-18.6 130.66-5.86Q130.66-4.64 130.66-3.08 130.66-1.51 130.71 0.2L130.71 0.2 128.95 0.2 111.71-24.76 112.05-24.76 112.05-9.96Q112.05-6.93 112.13-5.3 112.2-3.66 112.27-3 112.35-2.34 112.35-2.2L112.35-2.2 115.62-1.56 115.52 0 106.63 0 106.54-1.56 109.47-2.2Q109.51-2.34 109.56-2.95 109.61-3.56 109.66-5.2 109.71-6.84 109.71-9.96L109.71-9.96 109.71-19.24Q109.71-21.83 109.68-23.24 109.66-24.66 109.61-25.37 109.56-26.07 109.47-26.46L109.47-26.46 106.54-27.1 106.63-28.66 112.83-28.66 128.7-5.91ZM157.46 0L148.43 0 148.33-1.56 151.26-2.2Q151.31-2.44 151.33-3.25 151.35-4.05 151.38-5.52 151.4-6.98 151.4-9.23L151.4-9.23 151.4-19.38Q151.4-21.68 151.38-23.17 151.35-24.66 151.33-25.46 151.31-26.27 151.26-26.46L151.26-26.46 148.33-27.1 148.43-28.66 157.46-28.66 157.56-27.1 154.63-26.46Q154.58-26.32 154.5-25.63 154.43-24.95 154.41-23.49 154.38-22.02 154.38-19.38L154.38-19.38 154.38-9.23Q154.38-6.69 154.41-5.2 154.43-3.71 154.5-3.05 154.58-2.39 154.63-2.2L154.63-2.2 157.56-1.56 157.46 0ZM184.85-5.91L184.51-5.91 184.51-18.6Q184.51-21.73 184.46-23.36 184.41-25 184.36-25.68 184.31-26.37 184.26-26.46L184.26-26.46 180.99-27.1 181.09-28.66 189.88-28.66 189.98-27.1 187.05-26.46Q187.05-26.37 186.97-25.68 186.9-25 186.85-23.34 186.8-21.68 186.8-18.6L186.8-18.6 186.8-5.86Q186.8-4.64 186.8-3.08 186.8-1.51 186.85 0.2L186.85 0.2 185.09 0.2 167.86-24.76 168.2-24.76 168.2-9.96Q168.2-6.93 168.27-5.3 168.34-3.66 168.42-3 168.49-2.34 168.49-2.2L168.49-2.2 171.76-1.56 171.66 0 162.78 0 162.68-1.56 165.61-2.2Q165.66-2.34 165.71-2.95 165.76-3.56 165.81-5.2 165.85-6.84 165.85-9.96L165.85-9.96 165.85-19.24Q165.85-21.83 165.83-23.24 165.81-24.66 165.76-25.37 165.71-26.07 165.61-26.46L165.61-26.46 162.68-27.1 162.78-28.66 168.98-28.66 184.85-5.91ZM225.76-6.64L223.95 0.2Q223.56 0.15 223 0.1 222.44 0.05 221.83 0.02 221.22 0 220.63 0L220.63 0 204.57 0 204.47-1.56 207.4-2.2Q207.45-2.44 207.5-3.2 207.55-3.96 207.57-5.44 207.6-6.93 207.6-9.23L207.6-9.23 207.6-19.38Q207.6-21.73 207.6-23.19 207.6-24.66 207.55-25.44 207.5-26.22 207.4-26.42L207.4-26.42 204.47-27.1 204.57-28.66 214.82-28.66 214.92-27 210.87-26.42Q210.77-26.27 210.72-25.56 210.67-24.85 210.65-23.36 210.62-21.88 210.62-19.38L210.62-19.38 210.62-9.23Q210.62-6.84 210.65-4.86 210.67-2.88 210.72-2.44L210.72-2.44Q211.31-2.39 211.94-2.37 212.58-2.34 213.31-2.34L213.31-2.34 218-2.34Q219.07-2.34 219.85-2.37 220.63-2.39 221.51-2.49L221.51-2.49 223.95-7.03 225.76-6.64ZM242.46 0.44L242.46 0.44Q238.31 0.44 235.13-1.42 231.96-3.27 230.15-6.62 228.35-9.96 228.35-14.31L228.35-14.31Q228.35-18.55 230.2-21.9 232.06-25.24 235.3-27.17 238.55-29.1 242.65-29.1L242.65-29.1Q246.61-29.1 249.64-27.25 252.66-25.39 254.37-22.09 256.08-18.8 256.08-14.45L256.08-14.45Q256.08-11.43 255.08-8.74 254.08-6.05 252.27-3.98 250.47-1.9 247.98-0.73 245.49 0.44 242.46 0.44ZM243-1.71L243-1.71Q245.83-1.71 247.95-3.15 250.08-4.59 251.27-7.23 252.47-9.86 252.47-13.33L252.47-13.33Q252.47-17.38 251.15-20.46 249.83-23.54 247.49-25.29 245.14-27.05 242.07-27.05L242.07-27.05Q237.48-27.05 234.82-23.8 232.16-20.56 232.16-14.99L232.16-14.99Q232.16-11.13 233.55-8.13 234.94-5.13 237.4-3.42 239.87-1.71 243-1.71ZM283.52-5.91L283.18-5.91 283.18-18.6Q283.18-21.73 283.13-23.36 283.08-25 283.03-25.68 282.98-26.37 282.93-26.46L282.93-26.46 279.66-27.1 279.76-28.66 288.55-28.66 288.65-27.1 285.72-26.46Q285.72-26.37 285.64-25.68 285.57-25 285.52-23.34 285.47-21.68 285.47-18.6L285.47-18.6 285.47-5.86Q285.47-4.64 285.47-3.08 285.47-1.51 285.52 0.2L285.52 0.2 283.76 0.2 266.53-24.76 266.87-24.76 266.87-9.96Q266.87-6.93 266.94-5.3 267.02-3.66 267.09-3 267.16-2.34 267.16-2.2L267.16-2.2 270.43-1.56 270.34 0 261.45 0 261.35-1.56 264.28-2.2Q264.33-2.34 264.38-2.95 264.43-3.56 264.48-5.2 264.53-6.84 264.53-9.96L264.53-9.96 264.53-19.24Q264.53-21.83 264.5-23.24 264.48-24.66 264.43-25.37 264.38-26.07 264.28-26.46L264.28-26.46 261.35-27.1 261.45-28.66 267.65-28.66 283.52-5.91ZM293.87-27.1L293.97-28.66 304.95-28.66Q312.57-28.66 316.84-24.98 321.12-21.29 321.12-14.65L321.12-14.65Q321.12-10.35 319.14-7.03 317.16-3.71 313.67-1.86 310.18 0 305.59 0L305.59 0 293.97 0 293.87-1.56 296.75-2.2Q296.85-2.73 296.92-4.74 296.99-6.74 296.99-9.23L296.99-9.23 296.99-19.38Q296.99-22.22 296.92-24.17 296.85-26.12 296.75-26.46L296.75-26.46 293.87-27.1ZM300.07-26.32L300.07-26.32Q300.07-25.78 300.05-25.1 300.02-24.41 300-23.12 299.97-21.83 299.97-19.38L299.97-19.38 299.97-9.23Q299.97-7.67 300-6.42 300.02-5.18 300.07-4.22 300.12-3.27 300.17-2.59L300.17-2.59Q301.97-2.39 303.27-2.27 304.56-2.15 305.88-2.15L305.88-2.15Q311.54-2.15 314.5-5.08 317.45-8.01 317.45-13.23L317.45-13.23Q317.45-16.31 316.67-18.8 315.89-21.29 314.28-23.05 312.67-24.8 310.2-25.76 307.74-26.71 304.37-26.71L304.37-26.71Q303.39-26.71 302.32-26.64 301.24-26.56 300.07-26.32ZM340.79 0.44L340.79 0.44Q336.64 0.44 333.47-1.42 330.29-3.27 328.49-6.62 326.68-9.96 326.68-14.31L326.68-14.31Q326.68-18.55 328.53-21.9 330.39-25.24 333.64-27.17 336.88-29.1 340.99-29.1L340.99-29.1Q344.94-29.1 347.97-27.25 351-25.39 352.7-22.09 354.41-18.8 354.41-14.45L354.41-14.45Q354.41-11.43 353.41-8.74 352.41-6.05 350.6-3.98 348.8-1.9 346.31-0.73 343.82 0.44 340.79 0.44ZM341.33-1.71L341.33-1.71Q344.16-1.71 346.28-3.15 348.41-4.59 349.6-7.23 350.8-9.86 350.8-13.33L350.8-13.33Q350.8-17.38 349.48-20.46 348.16-23.54 345.82-25.29 343.48-27.05 340.4-27.05L340.4-27.05Q335.81-27.05 333.15-23.8 330.49-20.56 330.49-14.99L330.49-14.99Q330.49-11.13 331.88-8.13 333.27-5.13 335.74-3.42 338.2-1.71 341.33-1.71ZM381.85-5.91L381.51-5.91 381.51-18.6Q381.51-21.73 381.46-23.36 381.41-25 381.36-25.68 381.32-26.37 381.27-26.46L381.27-26.46 377.99-27.1 378.09-28.66 386.88-28.66 386.98-27.1 384.05-26.46Q384.05-26.37 383.98-25.68 383.9-25 383.85-23.34 383.81-21.68 383.81-18.6L383.81-18.6 383.81-5.86Q383.81-4.64 383.81-3.08 383.81-1.51 383.85 0.2L383.85 0.2 382.1 0.2 364.86-24.76 365.2-24.76 365.2-9.96Q365.2-6.93 365.28-5.3 365.35-3.66 365.42-3 365.49-2.34 365.49-2.2L365.49-2.2 368.77-1.56 368.67 0 359.78 0 359.68-1.56 362.61-2.2Q362.66-2.34 362.71-2.95 362.76-3.56 362.81-5.2 362.86-6.84 362.86-9.96L362.86-9.96 362.86-19.24Q362.86-21.83 362.83-23.24 362.81-24.66 362.76-25.37 362.71-26.07 362.61-26.46L362.61-26.46 359.68-27.1 359.78-28.66 365.98-28.66 381.85-5.91Z" opacity="1" transform="matrix(1,0,0,1,0,0)" fill="#ffffff" class="undefined-text-0" data-fill-palette-color="primary" id="text-0"></path></svg></g></svg></g></svg></g></svg></g><g transform="matrix(1,0,0,1,147.10209195881453,0)"><svg viewBox="0 0 103.29341608237088 41.78648309325247" height="41.78648309325247" width="103.29341608237088"><g><svg xmlns="http://www.w3.org/2000/svg" xmlns:xlink="http://www.w3.org/1999/xlink" version="1.1" x="8" y="0" viewBox="5.999835014343262 24.93999481201172 76.40018463134766 36.57200241088867" enable-background="new 0 0 90 90" xml:space="preserve" height="41.78648309325247" width="87.29341608237088" class="icon-icon-0" data-fill-palette-color="accent" id="icon-0"><g fill="#ffffff" data-fill-palette-color="accent"><path d="M24.877 48.146h5.915c0.113 0 0.214-0.07 0.254-0.177 0.04-0.105 0.009-0.226-0.076-0.3l-1.852-1.609-1.04-1.889c0.005-0.021 0.008-0.041 0.009-0.062 0.048-3.175 1.321-6.153 3.584-8.384 2.266-2.233 5.266-3.464 8.448-3.464 2.125 0 4.214 0.561 6.04 1.624 0.037 0.021 0.076 0.032 0.117 0.035l-2.244 1.839c-0.088 0.073-0.122 0.193-0.083 0.301 0.038 0.108 0.141 0.18 0.255 0.18h8.221c0.113 0 0.215-0.07 0.254-0.176 0.041-0.106 0.01-0.226-0.076-0.299l-2.588-2.25-1.463-2.657c-0.048-0.088-0.143-0.146-0.242-0.141-0.1 0.001-0.191 0.059-0.237 0.149l-1.368 2.704-0.14 0.114c0.013-0.104-0.036-0.211-0.132-0.268-1.91-1.11-4.093-1.697-6.313-1.697-3.326 0-6.461 1.286-8.829 3.62-2.365 2.332-3.696 5.444-3.746 8.763-0.001 0.041 0.008 0.079 0.024 0.114L26.615 46.1l-1.909 1.565c-0.089 0.073-0.122 0.193-0.083 0.302C24.661 48.074 24.763 48.146 24.877 48.146zM47.091 33.953c0.03-0.024 0.055-0.054 0.07-0.087l1.163-2.296 1.237 2.25c0.016 0.028 0.037 0.053 0.061 0.074l2.077 1.805h-6.735L47.091 33.953zM27.003 46.483c0.029-0.024 0.053-0.054 0.07-0.088l0.771-1.523 0.821 1.492c0.015 0.028 0.036 0.054 0.06 0.074l1.341 1.165h-4.43L27.003 46.483z" fill="#ffffff" data-fill-palette-color="accent"></path><path d="M48.314 37.425c-1.542 0-2.798 1.255-2.798 2.798 0 1.543 1.256 2.798 2.798 2.798 1.544 0 2.798-1.255 2.798-2.798C51.112 38.68 49.858 37.425 48.314 37.425zM48.314 42.479c-1.243 0-2.255-1.013-2.255-2.256 0-1.244 1.012-2.256 2.255-2.256s2.256 1.012 2.256 2.256C50.57 41.467 49.558 42.479 48.314 42.479z" fill="#ffffff" data-fill-palette-color="accent"></path><path d="M11.354 48.146h5.915c0.114 0 0.215-0.07 0.254-0.177 0.04-0.105 0.009-0.226-0.076-0.3l-1.853-1.609-1.045-1.899c-0.048-0.089-0.14-0.14-0.242-0.141-0.101 0.001-0.192 0.059-0.237 0.148L13.092 46.1l-1.91 1.565c-0.089 0.073-0.122 0.193-0.083 0.302C11.137 48.074 11.24 48.146 11.354 48.146zM13.48 46.483c0.029-0.024 0.053-0.054 0.07-0.088l0.771-1.523 0.821 1.492c0.015 0.028 0.035 0.054 0.06 0.074l1.341 1.165h-4.43L13.48 46.483z" fill="#ffffff" data-fill-palette-color="accent"></path><path d="M45.27 43.88l-0.567-0.287v-5.946c0-0.15-0.121-0.271-0.271-0.271s-0.271 0.121-0.271 0.271v6.113c0 0.103 0.057 0.196 0.148 0.242l0.461 0.232-0.27 0.467c-0.021 0.036-0.033 0.077-0.036 0.119l-0.051 0.826-0.163 9.951c-1.236 0.452-2.532 0.695-3.859 0.725-0.001-6.176-0.003-10.121-0.004-11.268 0.182-0.094 0.308-0.281 0.308-0.5 0-0.312-0.252-0.564-0.564-0.564s-0.563 0.253-0.563 0.564c0 0.146 0.058 0.279 0.149 0.379L35.125 55.24c-1.488-0.68-2.839-1.661-3.955-2.901-0.031-1.855-0.037-3.413-0.037-3.435 0-0.011-0.002-0.021-0.003-0.031-0.001-0.008-0.001-0.016-0.003-0.022-0.001-0.011-0.006-0.021-0.009-0.031-0.002-0.006-0.004-0.014-0.006-0.021-0.004-0.01-0.01-0.019-0.015-0.027-0.003-0.006-0.006-0.013-0.01-0.019-0.005-0.008-0.012-0.015-0.019-0.021-0.004-0.006-0.009-0.013-0.015-0.019-0.006-0.006-0.013-0.011-0.019-0.016-0.007-0.006-0.014-0.012-0.021-0.018-0.006-0.004-0.014-0.007-0.021-0.011-0.008-0.005-0.016-0.011-0.025-0.014-0.008-0.004-0.017-0.005-0.026-0.008-0.008-0.003-0.017-0.007-0.025-0.008-0.017-0.004-0.036-0.006-0.054-0.006H30.86h-5.735c-0.15 0-0.271 0.121-0.271 0.271v2.344h-7.245v-2.344c0-0.15-0.122-0.271-0.271-0.271h-5.736c-0.149 0-0.271 0.121-0.271 0.271v6.954l-5.249 5.115c-0.079 0.077-0.104 0.194-0.062 0.297 0.042 0.103 0.141 0.169 0.251 0.169h5.331c0.15 0 0.271-0.121 0.271-0.271 0-0.009-0.001-0.017-0.002-0.025 0.001-0.009 0.002-0.018 0.002-0.026V49.176h5.193v9.608l-2.161 2.174c-0.077 0.077-0.1 0.194-0.058 0.295 0.042 0.101 0.141 0.167 0.25 0.167h2.24c0.15 0 0.271-0.121 0.271-0.271v-2.141l3.012-3.03c0.106-0.106 0.105-0.278-0.001-0.384-0.106-0.105-0.278-0.104-0.384 0.002l-2.627 2.643v-6.446h7.245v6.268l-2.45-2.464c-0.105-0.107-0.277-0.107-0.383-0.002-0.106 0.105-0.107 0.277-0.001 0.384l2.835 2.852v2.319c0 0.15 0.122 0.271 0.271 0.271h2.417c0.11 0 0.208-0.066 0.25-0.167s0.019-0.218-0.058-0.295l-2.338-2.353v-9.43h5.194c0.004 0.816 0.023 3.346 0.091 5.574 0.069 2.295 1.248 3.847 2.499 4.854l-0.552 1.238c-0.037 0.084-0.03 0.182 0.021 0.258 0.05 0.077 0.135 0.124 0.228 0.124h3.407c0.136 0 0.251-0.101 0.269-0.236 0.018-0.135-0.067-0.262-0.198-0.297-0.013-0.004-1.254-0.344-2.509-1.248l1.556-3.493c1.401 0.568 2.907 0.885 4.445 0.918 0 1.037 0 2.134 0 3.289v0.071c-0.004 0.344-0.012 1.147 0.928 1.205 0.435 0.027 0.988 0.035 1.532 0.035 1.051 0 2.068-0.032 2.133-0.034 0.143-0.005 0.259-0.123 0.262-0.268l0.252-15.498 0.047-0.75 0.381-0.66c0.037-0.064 0.047-0.142 0.025-0.214C45.386 43.973 45.336 43.913 45.27 43.88zM11.331 56.616v4.282H6.938L11.331 56.616zM17.067 60.878H15.75l1.316-1.324V60.878zM26.891 60.878h-1.494v-1.503L26.891 60.878zM34.883 60.681h-1.589l0.331-0.743C34.066 60.247 34.5 60.492 34.883 60.681zM33.405 59.102c-1.395-1.162-2.128-2.63-2.181-4.368-0.016-0.521-0.029-1.06-0.04-1.589 1.081 1.09 2.344 1.964 3.719 2.591L33.405 59.102zM35.623 55.454l4.22-9.475c0.001 1.765 0.003 5.316 0.004 10.345C38.386 56.291 36.956 55.991 35.623 55.454zM40.809 60.892c-0.387-0.023-0.423-0.21-0.419-0.659v-0.076c0-1.156 0-2.254 0-3.292 1.321-0.027 2.613-0.258 3.851-0.688l-0.077 4.722C43.518 60.916 41.813 60.953 40.809 60.892z" fill="#ffffff" data-fill-palette-color="accent"></path><path d="M82.245 48.185c-0.007-0.004-0.101-0.048-0.271-0.123l-0.481-3.922c-0.009-0.08-0.054-0.15-0.12-0.194-0.067-0.044-0.15-0.056-0.227-0.032l-6.284 1.898c-0.053 0.016-0.096 0.047-0.129 0.085-1.818-0.341-3.876-0.583-6.069-0.59-0.117-0.922-0.26-1.847-0.434-2.741-0.871-4.464-2.259-6.728-4.124-6.728-2.219 0-3.514 3.736-4.239 7.994-1.016-4.681-1.963-10.759-2.694-18.647-0.001-0.004-0.003-0.008-0.003-0.013-0.002-0.01-0.004-0.019-0.006-0.028-0.002-0.009-0.004-0.017-0.007-0.025-0.003-0.008-0.006-0.016-0.01-0.023-0.004-0.009-0.009-0.017-0.014-0.026-0.003-0.006-0.008-0.012-0.013-0.018-0.006-0.009-0.013-0.018-0.021-0.026-0.002-0.002-0.005-0.005-0.007-0.008s-0.005-0.004-0.007-0.006c-0.009-0.008-0.018-0.015-0.026-0.022-0.006-0.003-0.011-0.007-0.016-0.011-0.01-0.006-0.02-0.011-0.03-0.016-0.006-0.002-0.012-0.005-0.019-0.007-0.01-0.004-0.02-0.006-0.029-0.009-0.008-0.001-0.014-0.003-0.021-0.004-0.01-0.002-0.02-0.002-0.028-0.003-0.01 0-0.019 0-0.028 0-0.004 0-0.008 0-0.012 0-0.004 0-0.008 0.002-0.012 0.002-0.01 0.001-0.02 0.003-0.029 0.005-0.008 0.002-0.016 0.004-0.023 0.008-0.008 0.002-0.017 0.006-0.025 0.01-0.008 0.003-0.016 0.008-0.023 0.012s-0.014 0.009-0.021 0.014c-0.009 0.006-0.016 0.012-0.022 0.019-0.004 0.003-0.008 0.005-0.01 0.008l-0.679 0.678c-0.044 0.044-0.071 0.101-0.077 0.163l-2.688 25.39h-0.873l-0.084-5.467c0-0.01-0.001-0.021-0.002-0.031l-0.123-0.949c-0.004-0.025-0.012-0.051-0.021-0.074l-0.209-0.472 0.537-0.25c0.096-0.044 0.156-0.141 0.156-0.246v-6.113c0-0.15-0.121-0.271-0.271-0.271-0.149 0-0.271 0.121-0.271 0.271v5.94l-0.622 0.289c-0.133 0.062-0.193 0.221-0.133 0.355l0.301 0.68 0.116 0.895 0.202 13.108c0 1.151-0.007 2.31-0.007 2.31-0.001 0.073 0.028 0.143 0.079 0.193 0.052 0.052 0.124 0.074 0.195 0.08 0.072-0.001 7.33-0.067 8.393-0.001 0.157 0.01 0.301 0.016 0.432 0.016 0.395 0 0.674-0.055 0.857-0.228 0.193-0.181 0.22-0.439 0.22-0.691 0-0.704-0.757-1.078-0.789-1.094-0.007-0.004-0.015-0.007-0.021-0.01-0.868-0.327-1.755-1.229-1.755-5.432 0-1.987 0.12-4.647 0.424-7.312 3.153 12.447 6.729 13.23 6.938 13.266 0.047 0.008 0.095 0.003 0.14-0.014 1.476-0.557 2.104-2.333 2.104-5.939 0-0.548-0.007-1.334-0.034-2.275h12.983c0.149 0 0.271-0.121 0.271-0.271v-3.082C82.399 48.324 82.34 48.229 82.245 48.185zM59.031 54.058c0 3.595 0.626 5.37 2.09 5.934 0.06 0.032 0.476 0.27 0.476 0.602 0 0.062 0 0.25-0.05 0.297-0.079 0.074-0.377 0.097-0.883 0.064-0.976-0.061-6.796-0.015-8.157-0.003 0.002-0.411 0.005-1.228 0.005-2.042l-0.109-7.117h1.108c0.139 0 0.256-0.104 0.27-0.243l2.703-25.538 0.202-0.202c0.798 8.374 1.841 14.699 2.956 19.476C59.183 48.595 59.031 51.996 59.031 54.058zM81.397 47.819c-0.282-0.113-0.631-0.249-1.038-0.396l0.705-2.323L81.397 47.819zM78.137 46.705l2.399-1.731-0.688 2.27C79.344 47.071 78.771 46.888 78.137 46.705zM79.68 44.922l-2.213 1.598c-0.533-0.144-1.103-0.283-1.704-0.414L79.68 44.922zM66.961 59.458c-0.497-0.166-3.855-1.738-6.774-14.203 0.125-0.883 0.271-1.752 0.443-2.583 0.482-2.35 1.577-6.291 3.476-6.291 3.13 0 4.531 8.878 4.531 17.677C68.637 56.377 68.436 58.821 66.961 59.458zM81.856 51.24h-12.73c-0.057-1.555-0.171-3.451-0.396-5.39 3.323 0.018 6.325 0.581 8.632 1.201 0.047 0.03 0.103 0.045 0.159 0.043 2.283 0.625 3.856 1.294 4.336 1.508V51.24z" fill="#ffffff" data-fill-palette-color="accent"></path><path d="M81.966 53.059c-0.15-0.008-0.278 0.103-0.289 0.252l-0.525 7.567H67.933c-0.15 0-0.271 0.121-0.271 0.271 0 0.15 0.121 0.271 0.271 0.271h13.472c0.143 0 0.262-0.11 0.271-0.252l0.543-7.82C82.228 53.198 82.115 53.068 81.966 53.059z" fill="#ffffff" data-fill-palette-color="accent"></path></g></svg></g></svg></g><g><rect width="70.56897195881456" height="2.726735288712055" y="38.059747804540415" x="250.3955080411854" fill="#ffffff" data-fill-palette-color="secondary"></rect><rect width="70.56897195881456" height="2.726735288712055" y="38.059747804540415" x="76.53311999999997" fill="#ffffff" data-fill-palette-color="secondary"></rect></g></svg></g></svg><rect width="395.52" height="88.58264571683752" fill="none" stroke="none" visibility="hidden"></rect></g></svg></g></svg>